G04 #@! TF.GenerationSoftware,KiCad,Pcbnew,7.0.10*
G04 #@! TF.CreationDate,2026-04-22T15:59:59+02:00*
G04 #@! TF.ProjectId,Retrophone,52657472-6f70-4686-9f6e-652e6b696361,rev?*
G04 #@! TF.SameCoordinates,Original*
G04 #@! TF.FileFunction,Soldermask,Bot*
G04 #@! TF.FilePolarity,Negative*
%FSLAX46Y46*%
G04 Gerber Fmt 4.6, Leading zero omitted, Abs format (unit mm)*
G04 Created by KiCad (PCBNEW 7.0.10) date 2026-04-22 15:59:59*
%MOMM*%
%LPD*%
G01*
G04 APERTURE LIST*
G04 Aperture macros list*
%AMRoundRect*
0 Rectangle with rounded corners*
0 $1 Rounding radius*
0 $2 $3 $4 $5 $6 $7 $8 $9 X,Y pos of 4 corners*
0 Add a 4 corners polygon primitive as box body*
4,1,4,$2,$3,$4,$5,$6,$7,$8,$9,$2,$3,0*
0 Add four circle primitives for the rounded corners*
1,1,$1+$1,$2,$3*
1,1,$1+$1,$4,$5*
1,1,$1+$1,$6,$7*
1,1,$1+$1,$8,$9*
0 Add four rect primitives between the rounded corners*
20,1,$1+$1,$2,$3,$4,$5,0*
20,1,$1+$1,$4,$5,$6,$7,0*
20,1,$1+$1,$6,$7,$8,$9,0*
20,1,$1+$1,$8,$9,$2,$3,0*%
G04 Aperture macros list end*
%ADD10C,1.600000*%
%ADD11O,1.600000X1.600000*%
%ADD12R,1.600000X1.600000*%
%ADD13R,1.800000X1.800000*%
%ADD14C,1.800000*%
%ADD15C,3.200000*%
%ADD16RoundRect,0.400000X-0.400000X0.600000X-0.400000X-0.600000X0.400000X-0.600000X0.400000X0.600000X0*%
%ADD17RoundRect,0.400000X-0.600000X0.400000X-0.600000X-0.400000X0.600000X-0.400000X0.600000X0.400000X0*%
%ADD18C,1.500000*%
%ADD19R,1.600000X2.000000*%
%ADD20RoundRect,0.400000X-0.400000X-0.600000X0.400000X-0.600000X0.400000X0.600000X-0.400000X0.600000X0*%
%ADD21R,1.600000X2.400000*%
%ADD22O,1.600000X2.400000*%
%ADD23RoundRect,0.400000X-0.400000X1.100000X-0.400000X-1.100000X0.400000X-1.100000X0.400000X1.100000X0*%
%ADD24C,2.000000*%
%ADD25O,3.500000X3.500000*%
%ADD26R,2.000000X1.905000*%
%ADD27O,2.000000X1.905000*%
%ADD28R,1.050000X1.500000*%
%ADD29O,1.050000X1.500000*%
%ADD30R,2.400000X1.600000*%
%ADD31O,2.400000X1.600000*%
%ADD32R,2.200000X2.200000*%
%ADD33O,2.200000X2.200000*%
%ADD34R,3.500000X3.500000*%
%ADD35RoundRect,0.750000X-0.750000X-1.000000X0.750000X-1.000000X0.750000X1.000000X-0.750000X1.000000X0*%
%ADD36RoundRect,0.875000X-0.875000X-0.875000X0.875000X-0.875000X0.875000X0.875000X-0.875000X0.875000X0*%
%ADD37R,1.700000X1.700000*%
%ADD38O,1.700000X1.700000*%
%ADD39C,1.700000*%
%ADD40C,3.500000*%
G04 APERTURE END LIST*
D10*
X141250000Y-113080000D03*
D11*
X141250000Y-102920000D03*
D12*
X145629512Y-122174000D03*
D10*
X143129512Y-122174000D03*
X95500000Y-124750000D03*
D11*
X95500000Y-114590000D03*
D13*
X123700000Y-103250000D03*
D14*
X126240000Y-103250000D03*
D15*
X85000000Y-85000000D03*
D10*
X141000000Y-149420000D03*
D11*
X141000000Y-159580000D03*
D16*
X134450000Y-149880000D03*
X131910000Y-149880000D03*
X129370000Y-149880000D03*
X126830000Y-149880000D03*
X124290000Y-149880000D03*
X121750000Y-149880000D03*
X119210000Y-149880000D03*
X116670000Y-149880000D03*
X114130000Y-149880000D03*
X111590000Y-149880000D03*
X109050000Y-149880000D03*
X106510000Y-149880000D03*
D17*
X106510000Y-165120000D03*
D16*
X109050000Y-165120000D03*
X111590000Y-165120000D03*
X114130000Y-165120000D03*
X116670000Y-165120000D03*
X119210000Y-165120000D03*
X121750000Y-165120000D03*
X124290000Y-165120000D03*
X126830000Y-165120000D03*
X129370000Y-165120000D03*
X131910000Y-165120000D03*
X134450000Y-165120000D03*
D13*
X123700000Y-115625000D03*
D14*
X126240000Y-115625000D03*
D18*
X133500000Y-138800000D03*
X133500000Y-143700000D03*
D19*
X102975000Y-101000000D03*
D20*
X104975000Y-101000000D03*
X106975000Y-101000000D03*
X102975000Y-106000000D03*
X104975000Y-106000000D03*
X106975000Y-106000000D03*
D10*
X103000000Y-151670000D03*
D11*
X103000000Y-161830000D03*
D21*
X107350000Y-145075000D03*
D22*
X109890000Y-145075000D03*
X112430000Y-145075000D03*
X114970000Y-145075000D03*
X117510000Y-145075000D03*
X120050000Y-145075000D03*
X122590000Y-145075000D03*
X125130000Y-145075000D03*
X127670000Y-145075000D03*
X127670000Y-137455000D03*
X125130000Y-137455000D03*
X122590000Y-137455000D03*
X120050000Y-137455000D03*
X117510000Y-137455000D03*
X114970000Y-137455000D03*
X112430000Y-137455000D03*
X109890000Y-137455000D03*
X107350000Y-137455000D03*
D23*
X99160000Y-140610000D03*
X96620000Y-140610000D03*
X94080000Y-140610000D03*
X91540000Y-140610000D03*
X89000000Y-140610000D03*
X86460000Y-140610000D03*
X83920000Y-140610000D03*
X81380000Y-140610000D03*
X81380000Y-158390000D03*
X83920000Y-158390000D03*
X86460000Y-158390000D03*
X89000000Y-158390000D03*
X91540000Y-158390000D03*
X94080000Y-158390000D03*
X96620000Y-158390000D03*
X99160000Y-158390000D03*
D12*
X90455113Y-110250000D03*
D10*
X87955113Y-110250000D03*
X111250000Y-129000000D03*
X113750000Y-129000000D03*
X120750000Y-104750000D03*
D11*
X110590000Y-104750000D03*
D10*
X93750000Y-102500000D03*
X96250000Y-102500000D03*
D24*
X94250000Y-83210000D03*
X94240000Y-88290000D03*
D25*
X118889000Y-89186500D03*
D26*
X102229000Y-91726500D03*
D27*
X102229000Y-89186500D03*
X102229000Y-86646500D03*
D28*
X128730000Y-90000000D03*
D29*
X130000000Y-90000000D03*
X131270000Y-90000000D03*
D12*
X93794888Y-95000000D03*
D10*
X96294888Y-95000000D03*
X106920000Y-133750000D03*
D11*
X117080000Y-133750000D03*
D30*
X111675000Y-109125000D03*
D31*
X111675000Y-111665000D03*
X111675000Y-114205000D03*
X111675000Y-116745000D03*
X111675000Y-119285000D03*
X111675000Y-121825000D03*
X111675000Y-124365000D03*
X119295000Y-124365000D03*
X119295000Y-121825000D03*
X119295000Y-119285000D03*
X119295000Y-116745000D03*
X119295000Y-114205000D03*
X119295000Y-111665000D03*
X119295000Y-109125000D03*
D32*
X99000000Y-135420000D03*
D33*
X99000000Y-127800000D03*
D12*
X87000000Y-115500000D03*
D10*
X84500000Y-115500000D03*
D13*
X103700000Y-115625000D03*
D14*
X106240000Y-115625000D03*
D12*
X142544888Y-96250000D03*
D10*
X145044888Y-96250000D03*
D19*
X102975000Y-125250000D03*
D20*
X104975000Y-125250000D03*
X106975000Y-125250000D03*
X102975000Y-130250000D03*
X104975000Y-130250000D03*
X106975000Y-130250000D03*
D12*
X87000000Y-105000000D03*
D10*
X84500000Y-105000000D03*
X146250000Y-132000000D03*
D11*
X136090000Y-132000000D03*
D10*
X137000000Y-102920000D03*
D11*
X137000000Y-113080000D03*
D10*
X136090000Y-127125000D03*
D11*
X146250000Y-127125000D03*
D15*
X145000000Y-85000000D03*
D32*
X95000000Y-135420000D03*
D33*
X95000000Y-127800000D03*
D10*
X105080000Y-110250000D03*
D11*
X94920000Y-110250000D03*
D10*
X99000000Y-124750000D03*
D11*
X99000000Y-114590000D03*
D10*
X93750000Y-105500000D03*
X96250000Y-105500000D03*
X146250000Y-117375000D03*
D11*
X136090000Y-117375000D03*
D12*
X145250000Y-111810800D03*
D11*
X145250000Y-104190800D03*
D34*
X89250000Y-94750000D03*
D35*
X83250000Y-94750000D03*
D36*
X86250000Y-99450000D03*
D37*
X130975000Y-83500000D03*
D38*
X133515000Y-83500000D03*
D13*
X123700000Y-128000000D03*
D14*
X126240000Y-128000000D03*
D10*
X130250000Y-132830000D03*
D11*
X130250000Y-122670000D03*
D10*
X139500000Y-146080000D03*
D11*
X139500000Y-135920000D03*
D15*
X85000000Y-165000000D03*
D10*
X103000000Y-145830000D03*
D11*
X103000000Y-135670000D03*
D10*
X119750000Y-129000000D03*
X117250000Y-129000000D03*
X120750000Y-101250000D03*
D11*
X110590000Y-101250000D03*
D37*
X90577500Y-128250000D03*
D39*
X90577500Y-125750000D03*
X88577500Y-125750000D03*
X88577500Y-128250000D03*
D40*
X85867500Y-133020000D03*
X85867500Y-120980000D03*
D15*
X145000000Y-165000000D03*
M02*
