%TF.GenerationSoftware,KiCad,Pcbnew,7.0.10*%
%TF.CreationDate,2026-04-22T16:00:02+02:00*%
%TF.ProjectId,Retrophone,52657472-6f70-4686-9f6e-652e6b696361,rev?*%
%TF.SameCoordinates,Original*%
%TF.FileFunction,Drillmap*%
%TF.FilePolarity,Positive*%
%FSLAX45Y45*%
G04 Gerber Fmt 4.5, Leading zero omitted, Abs format (unit mm)*
G04 Created by KiCad (PCBNEW 7.0.10) date 2026-04-22 16:00:02*
%MOMM*%
%LPD*%
G01*
G04 APERTURE LIST*
%ADD10C,0.100000*%
%ADD11C,0.200000*%
%ADD12C,0.320000*%
%ADD13C,0.350000*%
G04 APERTURE END LIST*
D10*
X8000000Y-8000000D02*
X15000000Y-8000000D01*
X15000000Y-17000000D01*
X8000000Y-17000000D01*
X8000000Y-8000000D01*
D11*
D12*
X8340000Y-8340000D02*
X8660000Y-8660000D01*
X8660000Y-8340000D02*
X8340000Y-8660000D01*
X8340000Y-16340000D02*
X8660000Y-16660000D01*
X8660000Y-16340000D02*
X8340000Y-16660000D01*
X14340000Y-8340000D02*
X14660000Y-8660000D01*
X14660000Y-8340000D02*
X14340000Y-8660000D01*
X14340000Y-16340000D02*
X14660000Y-16660000D01*
X14660000Y-16340000D02*
X14340000Y-16660000D01*
D13*
X12063900Y-8918650D02*
G75*
G03*
X11713900Y-8918650I-175000J0D01*
G01*
X11713900Y-8918650D02*
G75*
G03*
X12063900Y-8918650I175000J0D01*
G01*
D11*
X8255777Y-17316484D02*
X8255777Y-17116484D01*
X8255777Y-17116484D02*
X8303396Y-17116484D01*
X8303396Y-17116484D02*
X8331967Y-17126008D01*
X8331967Y-17126008D02*
X8351015Y-17145055D01*
X8351015Y-17145055D02*
X8360539Y-17164103D01*
X8360539Y-17164103D02*
X8370062Y-17202198D01*
X8370062Y-17202198D02*
X8370062Y-17230770D01*
X8370062Y-17230770D02*
X8360539Y-17268865D01*
X8360539Y-17268865D02*
X8351015Y-17287912D01*
X8351015Y-17287912D02*
X8331967Y-17306960D01*
X8331967Y-17306960D02*
X8303396Y-17316484D01*
X8303396Y-17316484D02*
X8255777Y-17316484D01*
X8455777Y-17316484D02*
X8455777Y-17183150D01*
X8455777Y-17221246D02*
X8465301Y-17202198D01*
X8465301Y-17202198D02*
X8474824Y-17192674D01*
X8474824Y-17192674D02*
X8493872Y-17183150D01*
X8493872Y-17183150D02*
X8512920Y-17183150D01*
X8579586Y-17316484D02*
X8579586Y-17183150D01*
X8579586Y-17116484D02*
X8570063Y-17126008D01*
X8570063Y-17126008D02*
X8579586Y-17135531D01*
X8579586Y-17135531D02*
X8589110Y-17126008D01*
X8589110Y-17126008D02*
X8579586Y-17116484D01*
X8579586Y-17116484D02*
X8579586Y-17135531D01*
X8703396Y-17316484D02*
X8684348Y-17306960D01*
X8684348Y-17306960D02*
X8674824Y-17287912D01*
X8674824Y-17287912D02*
X8674824Y-17116484D01*
X8808158Y-17316484D02*
X8789110Y-17306960D01*
X8789110Y-17306960D02*
X8779586Y-17287912D01*
X8779586Y-17287912D02*
X8779586Y-17116484D01*
X9036729Y-17316484D02*
X9036729Y-17116484D01*
X9036729Y-17116484D02*
X9103396Y-17259341D01*
X9103396Y-17259341D02*
X9170063Y-17116484D01*
X9170063Y-17116484D02*
X9170063Y-17316484D01*
X9351015Y-17316484D02*
X9351015Y-17211722D01*
X9351015Y-17211722D02*
X9341491Y-17192674D01*
X9341491Y-17192674D02*
X9322444Y-17183150D01*
X9322444Y-17183150D02*
X9284348Y-17183150D01*
X9284348Y-17183150D02*
X9265301Y-17192674D01*
X9351015Y-17306960D02*
X9331967Y-17316484D01*
X9331967Y-17316484D02*
X9284348Y-17316484D01*
X9284348Y-17316484D02*
X9265301Y-17306960D01*
X9265301Y-17306960D02*
X9255777Y-17287912D01*
X9255777Y-17287912D02*
X9255777Y-17268865D01*
X9255777Y-17268865D02*
X9265301Y-17249817D01*
X9265301Y-17249817D02*
X9284348Y-17240293D01*
X9284348Y-17240293D02*
X9331967Y-17240293D01*
X9331967Y-17240293D02*
X9351015Y-17230770D01*
X9446253Y-17183150D02*
X9446253Y-17383150D01*
X9446253Y-17192674D02*
X9465301Y-17183150D01*
X9465301Y-17183150D02*
X9503396Y-17183150D01*
X9503396Y-17183150D02*
X9522444Y-17192674D01*
X9522444Y-17192674D02*
X9531967Y-17202198D01*
X9531967Y-17202198D02*
X9541491Y-17221246D01*
X9541491Y-17221246D02*
X9541491Y-17278389D01*
X9541491Y-17278389D02*
X9531967Y-17297436D01*
X9531967Y-17297436D02*
X9522444Y-17306960D01*
X9522444Y-17306960D02*
X9503396Y-17316484D01*
X9503396Y-17316484D02*
X9465301Y-17316484D01*
X9465301Y-17316484D02*
X9446253Y-17306960D01*
X9627205Y-17297436D02*
X9636729Y-17306960D01*
X9636729Y-17306960D02*
X9627205Y-17316484D01*
X9627205Y-17316484D02*
X9617682Y-17306960D01*
X9617682Y-17306960D02*
X9627205Y-17297436D01*
X9627205Y-17297436D02*
X9627205Y-17316484D01*
X9627205Y-17192674D02*
X9636729Y-17202198D01*
X9636729Y-17202198D02*
X9627205Y-17211722D01*
X9627205Y-17211722D02*
X9617682Y-17202198D01*
X9617682Y-17202198D02*
X9627205Y-17192674D01*
X9627205Y-17192674D02*
X9627205Y-17211722D01*
X7795000Y-17545000D02*
X7995000Y-17745000D01*
X7995000Y-17545000D02*
X7795000Y-17745000D01*
X8236729Y-17536484D02*
X8360539Y-17536484D01*
X8360539Y-17536484D02*
X8293872Y-17612674D01*
X8293872Y-17612674D02*
X8322443Y-17612674D01*
X8322443Y-17612674D02*
X8341491Y-17622198D01*
X8341491Y-17622198D02*
X8351015Y-17631722D01*
X8351015Y-17631722D02*
X8360539Y-17650770D01*
X8360539Y-17650770D02*
X8360539Y-17698389D01*
X8360539Y-17698389D02*
X8351015Y-17717436D01*
X8351015Y-17717436D02*
X8341491Y-17726960D01*
X8341491Y-17726960D02*
X8322443Y-17736484D01*
X8322443Y-17736484D02*
X8265301Y-17736484D01*
X8265301Y-17736484D02*
X8246253Y-17726960D01*
X8246253Y-17726960D02*
X8236729Y-17717436D01*
X8446253Y-17717436D02*
X8455777Y-17726960D01*
X8455777Y-17726960D02*
X8446253Y-17736484D01*
X8446253Y-17736484D02*
X8436729Y-17726960D01*
X8436729Y-17726960D02*
X8446253Y-17717436D01*
X8446253Y-17717436D02*
X8446253Y-17736484D01*
X8531967Y-17555531D02*
X8541491Y-17546008D01*
X8541491Y-17546008D02*
X8560539Y-17536484D01*
X8560539Y-17536484D02*
X8608158Y-17536484D01*
X8608158Y-17536484D02*
X8627205Y-17546008D01*
X8627205Y-17546008D02*
X8636729Y-17555531D01*
X8636729Y-17555531D02*
X8646253Y-17574579D01*
X8646253Y-17574579D02*
X8646253Y-17593627D01*
X8646253Y-17593627D02*
X8636729Y-17622198D01*
X8636729Y-17622198D02*
X8522444Y-17736484D01*
X8522444Y-17736484D02*
X8646253Y-17736484D01*
X8770063Y-17536484D02*
X8789110Y-17536484D01*
X8789110Y-17536484D02*
X8808158Y-17546008D01*
X8808158Y-17546008D02*
X8817682Y-17555531D01*
X8817682Y-17555531D02*
X8827205Y-17574579D01*
X8827205Y-17574579D02*
X8836729Y-17612674D01*
X8836729Y-17612674D02*
X8836729Y-17660293D01*
X8836729Y-17660293D02*
X8827205Y-17698389D01*
X8827205Y-17698389D02*
X8817682Y-17717436D01*
X8817682Y-17717436D02*
X8808158Y-17726960D01*
X8808158Y-17726960D02*
X8789110Y-17736484D01*
X8789110Y-17736484D02*
X8770063Y-17736484D01*
X8770063Y-17736484D02*
X8751015Y-17726960D01*
X8751015Y-17726960D02*
X8741491Y-17717436D01*
X8741491Y-17717436D02*
X8731967Y-17698389D01*
X8731967Y-17698389D02*
X8722444Y-17660293D01*
X8722444Y-17660293D02*
X8722444Y-17612674D01*
X8722444Y-17612674D02*
X8731967Y-17574579D01*
X8731967Y-17574579D02*
X8741491Y-17555531D01*
X8741491Y-17555531D02*
X8751015Y-17546008D01*
X8751015Y-17546008D02*
X8770063Y-17536484D01*
X8960539Y-17536484D02*
X8979586Y-17536484D01*
X8979586Y-17536484D02*
X8998634Y-17546008D01*
X8998634Y-17546008D02*
X9008158Y-17555531D01*
X9008158Y-17555531D02*
X9017682Y-17574579D01*
X9017682Y-17574579D02*
X9027205Y-17612674D01*
X9027205Y-17612674D02*
X9027205Y-17660293D01*
X9027205Y-17660293D02*
X9017682Y-17698389D01*
X9017682Y-17698389D02*
X9008158Y-17717436D01*
X9008158Y-17717436D02*
X8998634Y-17726960D01*
X8998634Y-17726960D02*
X8979586Y-17736484D01*
X8979586Y-17736484D02*
X8960539Y-17736484D01*
X8960539Y-17736484D02*
X8941491Y-17726960D01*
X8941491Y-17726960D02*
X8931967Y-17717436D01*
X8931967Y-17717436D02*
X8922444Y-17698389D01*
X8922444Y-17698389D02*
X8912920Y-17660293D01*
X8912920Y-17660293D02*
X8912920Y-17612674D01*
X8912920Y-17612674D02*
X8922444Y-17574579D01*
X8922444Y-17574579D02*
X8931967Y-17555531D01*
X8931967Y-17555531D02*
X8941491Y-17546008D01*
X8941491Y-17546008D02*
X8960539Y-17536484D01*
X9112920Y-17736484D02*
X9112920Y-17603150D01*
X9112920Y-17622198D02*
X9122444Y-17612674D01*
X9122444Y-17612674D02*
X9141491Y-17603150D01*
X9141491Y-17603150D02*
X9170063Y-17603150D01*
X9170063Y-17603150D02*
X9189110Y-17612674D01*
X9189110Y-17612674D02*
X9198634Y-17631722D01*
X9198634Y-17631722D02*
X9198634Y-17736484D01*
X9198634Y-17631722D02*
X9208158Y-17612674D01*
X9208158Y-17612674D02*
X9227205Y-17603150D01*
X9227205Y-17603150D02*
X9255777Y-17603150D01*
X9255777Y-17603150D02*
X9274825Y-17612674D01*
X9274825Y-17612674D02*
X9284348Y-17631722D01*
X9284348Y-17631722D02*
X9284348Y-17736484D01*
X9379586Y-17736484D02*
X9379586Y-17603150D01*
X9379586Y-17622198D02*
X9389110Y-17612674D01*
X9389110Y-17612674D02*
X9408158Y-17603150D01*
X9408158Y-17603150D02*
X9436729Y-17603150D01*
X9436729Y-17603150D02*
X9455777Y-17612674D01*
X9455777Y-17612674D02*
X9465301Y-17631722D01*
X9465301Y-17631722D02*
X9465301Y-17736484D01*
X9465301Y-17631722D02*
X9474825Y-17612674D01*
X9474825Y-17612674D02*
X9493872Y-17603150D01*
X9493872Y-17603150D02*
X9522444Y-17603150D01*
X9522444Y-17603150D02*
X9541491Y-17612674D01*
X9541491Y-17612674D02*
X9551015Y-17631722D01*
X9551015Y-17631722D02*
X9551015Y-17736484D01*
X9941491Y-17526960D02*
X9770063Y-17784103D01*
X10198634Y-17536484D02*
X10217682Y-17536484D01*
X10217682Y-17536484D02*
X10236729Y-17546008D01*
X10236729Y-17546008D02*
X10246253Y-17555531D01*
X10246253Y-17555531D02*
X10255777Y-17574579D01*
X10255777Y-17574579D02*
X10265301Y-17612674D01*
X10265301Y-17612674D02*
X10265301Y-17660293D01*
X10265301Y-17660293D02*
X10255777Y-17698389D01*
X10255777Y-17698389D02*
X10246253Y-17717436D01*
X10246253Y-17717436D02*
X10236729Y-17726960D01*
X10236729Y-17726960D02*
X10217682Y-17736484D01*
X10217682Y-17736484D02*
X10198634Y-17736484D01*
X10198634Y-17736484D02*
X10179587Y-17726960D01*
X10179587Y-17726960D02*
X10170063Y-17717436D01*
X10170063Y-17717436D02*
X10160539Y-17698389D01*
X10160539Y-17698389D02*
X10151015Y-17660293D01*
X10151015Y-17660293D02*
X10151015Y-17612674D01*
X10151015Y-17612674D02*
X10160539Y-17574579D01*
X10160539Y-17574579D02*
X10170063Y-17555531D01*
X10170063Y-17555531D02*
X10179587Y-17546008D01*
X10179587Y-17546008D02*
X10198634Y-17536484D01*
X10351015Y-17717436D02*
X10360539Y-17726960D01*
X10360539Y-17726960D02*
X10351015Y-17736484D01*
X10351015Y-17736484D02*
X10341491Y-17726960D01*
X10341491Y-17726960D02*
X10351015Y-17717436D01*
X10351015Y-17717436D02*
X10351015Y-17736484D01*
X10551015Y-17736484D02*
X10436729Y-17736484D01*
X10493872Y-17736484D02*
X10493872Y-17536484D01*
X10493872Y-17536484D02*
X10474825Y-17565055D01*
X10474825Y-17565055D02*
X10455777Y-17584103D01*
X10455777Y-17584103D02*
X10436729Y-17593627D01*
X10627206Y-17555531D02*
X10636729Y-17546008D01*
X10636729Y-17546008D02*
X10655777Y-17536484D01*
X10655777Y-17536484D02*
X10703396Y-17536484D01*
X10703396Y-17536484D02*
X10722444Y-17546008D01*
X10722444Y-17546008D02*
X10731968Y-17555531D01*
X10731968Y-17555531D02*
X10741491Y-17574579D01*
X10741491Y-17574579D02*
X10741491Y-17593627D01*
X10741491Y-17593627D02*
X10731968Y-17622198D01*
X10731968Y-17622198D02*
X10617682Y-17736484D01*
X10617682Y-17736484D02*
X10741491Y-17736484D01*
X10912920Y-17536484D02*
X10874825Y-17536484D01*
X10874825Y-17536484D02*
X10855777Y-17546008D01*
X10855777Y-17546008D02*
X10846253Y-17555531D01*
X10846253Y-17555531D02*
X10827206Y-17584103D01*
X10827206Y-17584103D02*
X10817682Y-17622198D01*
X10817682Y-17622198D02*
X10817682Y-17698389D01*
X10817682Y-17698389D02*
X10827206Y-17717436D01*
X10827206Y-17717436D02*
X10836729Y-17726960D01*
X10836729Y-17726960D02*
X10855777Y-17736484D01*
X10855777Y-17736484D02*
X10893872Y-17736484D01*
X10893872Y-17736484D02*
X10912920Y-17726960D01*
X10912920Y-17726960D02*
X10922444Y-17717436D01*
X10922444Y-17717436D02*
X10931968Y-17698389D01*
X10931968Y-17698389D02*
X10931968Y-17650770D01*
X10931968Y-17650770D02*
X10922444Y-17631722D01*
X10922444Y-17631722D02*
X10912920Y-17622198D01*
X10912920Y-17622198D02*
X10893872Y-17612674D01*
X10893872Y-17612674D02*
X10855777Y-17612674D01*
X10855777Y-17612674D02*
X10836729Y-17622198D01*
X10836729Y-17622198D02*
X10827206Y-17631722D01*
X10827206Y-17631722D02*
X10817682Y-17650770D01*
X11055777Y-17536484D02*
X11074825Y-17536484D01*
X11074825Y-17536484D02*
X11093872Y-17546008D01*
X11093872Y-17546008D02*
X11103396Y-17555531D01*
X11103396Y-17555531D02*
X11112920Y-17574579D01*
X11112920Y-17574579D02*
X11122444Y-17612674D01*
X11122444Y-17612674D02*
X11122444Y-17660293D01*
X11122444Y-17660293D02*
X11112920Y-17698389D01*
X11112920Y-17698389D02*
X11103396Y-17717436D01*
X11103396Y-17717436D02*
X11093872Y-17726960D01*
X11093872Y-17726960D02*
X11074825Y-17736484D01*
X11074825Y-17736484D02*
X11055777Y-17736484D01*
X11055777Y-17736484D02*
X11036729Y-17726960D01*
X11036729Y-17726960D02*
X11027206Y-17717436D01*
X11027206Y-17717436D02*
X11017682Y-17698389D01*
X11017682Y-17698389D02*
X11008158Y-17660293D01*
X11008158Y-17660293D02*
X11008158Y-17612674D01*
X11008158Y-17612674D02*
X11017682Y-17574579D01*
X11017682Y-17574579D02*
X11027206Y-17555531D01*
X11027206Y-17555531D02*
X11036729Y-17546008D01*
X11036729Y-17546008D02*
X11055777Y-17536484D01*
X11198634Y-17536484D02*
X11198634Y-17574579D01*
X11274825Y-17536484D02*
X11274825Y-17574579D01*
X11570063Y-17812674D02*
X11560539Y-17803150D01*
X11560539Y-17803150D02*
X11541491Y-17774579D01*
X11541491Y-17774579D02*
X11531968Y-17755531D01*
X11531968Y-17755531D02*
X11522444Y-17726960D01*
X11522444Y-17726960D02*
X11512920Y-17679341D01*
X11512920Y-17679341D02*
X11512920Y-17641246D01*
X11512920Y-17641246D02*
X11522444Y-17593627D01*
X11522444Y-17593627D02*
X11531968Y-17565055D01*
X11531968Y-17565055D02*
X11541491Y-17546008D01*
X11541491Y-17546008D02*
X11560539Y-17517436D01*
X11560539Y-17517436D02*
X11570063Y-17507912D01*
X11731968Y-17603150D02*
X11731968Y-17736484D01*
X11684348Y-17526960D02*
X11636729Y-17669817D01*
X11636729Y-17669817D02*
X11760539Y-17669817D01*
X11989110Y-17736484D02*
X11989110Y-17536484D01*
X12074825Y-17736484D02*
X12074825Y-17631722D01*
X12074825Y-17631722D02*
X12065301Y-17612674D01*
X12065301Y-17612674D02*
X12046253Y-17603150D01*
X12046253Y-17603150D02*
X12017682Y-17603150D01*
X12017682Y-17603150D02*
X11998634Y-17612674D01*
X11998634Y-17612674D02*
X11989110Y-17622198D01*
X12198634Y-17736484D02*
X12179587Y-17726960D01*
X12179587Y-17726960D02*
X12170063Y-17717436D01*
X12170063Y-17717436D02*
X12160539Y-17698389D01*
X12160539Y-17698389D02*
X12160539Y-17641246D01*
X12160539Y-17641246D02*
X12170063Y-17622198D01*
X12170063Y-17622198D02*
X12179587Y-17612674D01*
X12179587Y-17612674D02*
X12198634Y-17603150D01*
X12198634Y-17603150D02*
X12227206Y-17603150D01*
X12227206Y-17603150D02*
X12246253Y-17612674D01*
X12246253Y-17612674D02*
X12255777Y-17622198D01*
X12255777Y-17622198D02*
X12265301Y-17641246D01*
X12265301Y-17641246D02*
X12265301Y-17698389D01*
X12265301Y-17698389D02*
X12255777Y-17717436D01*
X12255777Y-17717436D02*
X12246253Y-17726960D01*
X12246253Y-17726960D02*
X12227206Y-17736484D01*
X12227206Y-17736484D02*
X12198634Y-17736484D01*
X12379587Y-17736484D02*
X12360539Y-17726960D01*
X12360539Y-17726960D02*
X12351015Y-17707912D01*
X12351015Y-17707912D02*
X12351015Y-17536484D01*
X12531968Y-17726960D02*
X12512920Y-17736484D01*
X12512920Y-17736484D02*
X12474825Y-17736484D01*
X12474825Y-17736484D02*
X12455777Y-17726960D01*
X12455777Y-17726960D02*
X12446253Y-17707912D01*
X12446253Y-17707912D02*
X12446253Y-17631722D01*
X12446253Y-17631722D02*
X12455777Y-17612674D01*
X12455777Y-17612674D02*
X12474825Y-17603150D01*
X12474825Y-17603150D02*
X12512920Y-17603150D01*
X12512920Y-17603150D02*
X12531968Y-17612674D01*
X12531968Y-17612674D02*
X12541491Y-17631722D01*
X12541491Y-17631722D02*
X12541491Y-17650770D01*
X12541491Y-17650770D02*
X12446253Y-17669817D01*
X12617682Y-17726960D02*
X12636730Y-17736484D01*
X12636730Y-17736484D02*
X12674825Y-17736484D01*
X12674825Y-17736484D02*
X12693872Y-17726960D01*
X12693872Y-17726960D02*
X12703396Y-17707912D01*
X12703396Y-17707912D02*
X12703396Y-17698389D01*
X12703396Y-17698389D02*
X12693872Y-17679341D01*
X12693872Y-17679341D02*
X12674825Y-17669817D01*
X12674825Y-17669817D02*
X12646253Y-17669817D01*
X12646253Y-17669817D02*
X12627206Y-17660293D01*
X12627206Y-17660293D02*
X12617682Y-17641246D01*
X12617682Y-17641246D02*
X12617682Y-17631722D01*
X12617682Y-17631722D02*
X12627206Y-17612674D01*
X12627206Y-17612674D02*
X12646253Y-17603150D01*
X12646253Y-17603150D02*
X12674825Y-17603150D01*
X12674825Y-17603150D02*
X12693872Y-17612674D01*
X12770063Y-17812674D02*
X12779587Y-17803150D01*
X12779587Y-17803150D02*
X12798634Y-17774579D01*
X12798634Y-17774579D02*
X12808158Y-17755531D01*
X12808158Y-17755531D02*
X12817682Y-17726960D01*
X12817682Y-17726960D02*
X12827206Y-17679341D01*
X12827206Y-17679341D02*
X12827206Y-17641246D01*
X12827206Y-17641246D02*
X12817682Y-17593627D01*
X12817682Y-17593627D02*
X12808158Y-17565055D01*
X12808158Y-17565055D02*
X12798634Y-17546008D01*
X12798634Y-17546008D02*
X12779587Y-17517436D01*
X12779587Y-17517436D02*
X12770063Y-17507912D01*
X13131968Y-17812674D02*
X13122444Y-17803150D01*
X13122444Y-17803150D02*
X13103396Y-17774579D01*
X13103396Y-17774579D02*
X13093872Y-17755531D01*
X13093872Y-17755531D02*
X13084349Y-17726960D01*
X13084349Y-17726960D02*
X13074825Y-17679341D01*
X13074825Y-17679341D02*
X13074825Y-17641246D01*
X13074825Y-17641246D02*
X13084349Y-17593627D01*
X13084349Y-17593627D02*
X13093872Y-17565055D01*
X13093872Y-17565055D02*
X13103396Y-17546008D01*
X13103396Y-17546008D02*
X13122444Y-17517436D01*
X13122444Y-17517436D02*
X13131968Y-17507912D01*
X13208158Y-17603150D02*
X13208158Y-17736484D01*
X13208158Y-17622198D02*
X13217682Y-17612674D01*
X13217682Y-17612674D02*
X13236730Y-17603150D01*
X13236730Y-17603150D02*
X13265301Y-17603150D01*
X13265301Y-17603150D02*
X13284349Y-17612674D01*
X13284349Y-17612674D02*
X13293872Y-17631722D01*
X13293872Y-17631722D02*
X13293872Y-17736484D01*
X13417682Y-17736484D02*
X13398634Y-17726960D01*
X13398634Y-17726960D02*
X13389111Y-17717436D01*
X13389111Y-17717436D02*
X13379587Y-17698389D01*
X13379587Y-17698389D02*
X13379587Y-17641246D01*
X13379587Y-17641246D02*
X13389111Y-17622198D01*
X13389111Y-17622198D02*
X13398634Y-17612674D01*
X13398634Y-17612674D02*
X13417682Y-17603150D01*
X13417682Y-17603150D02*
X13446253Y-17603150D01*
X13446253Y-17603150D02*
X13465301Y-17612674D01*
X13465301Y-17612674D02*
X13474825Y-17622198D01*
X13474825Y-17622198D02*
X13484349Y-17641246D01*
X13484349Y-17641246D02*
X13484349Y-17698389D01*
X13484349Y-17698389D02*
X13474825Y-17717436D01*
X13474825Y-17717436D02*
X13465301Y-17726960D01*
X13465301Y-17726960D02*
X13446253Y-17736484D01*
X13446253Y-17736484D02*
X13417682Y-17736484D01*
X13541492Y-17603150D02*
X13617682Y-17603150D01*
X13570063Y-17536484D02*
X13570063Y-17707912D01*
X13570063Y-17707912D02*
X13579587Y-17726960D01*
X13579587Y-17726960D02*
X13598634Y-17736484D01*
X13598634Y-17736484D02*
X13617682Y-17736484D01*
X13836730Y-17603150D02*
X13836730Y-17803150D01*
X13836730Y-17612674D02*
X13855777Y-17603150D01*
X13855777Y-17603150D02*
X13893873Y-17603150D01*
X13893873Y-17603150D02*
X13912920Y-17612674D01*
X13912920Y-17612674D02*
X13922444Y-17622198D01*
X13922444Y-17622198D02*
X13931968Y-17641246D01*
X13931968Y-17641246D02*
X13931968Y-17698389D01*
X13931968Y-17698389D02*
X13922444Y-17717436D01*
X13922444Y-17717436D02*
X13912920Y-17726960D01*
X13912920Y-17726960D02*
X13893873Y-17736484D01*
X13893873Y-17736484D02*
X13855777Y-17736484D01*
X13855777Y-17736484D02*
X13836730Y-17726960D01*
X14046253Y-17736484D02*
X14027206Y-17726960D01*
X14027206Y-17726960D02*
X14017682Y-17707912D01*
X14017682Y-17707912D02*
X14017682Y-17536484D01*
X14208158Y-17736484D02*
X14208158Y-17631722D01*
X14208158Y-17631722D02*
X14198634Y-17612674D01*
X14198634Y-17612674D02*
X14179587Y-17603150D01*
X14179587Y-17603150D02*
X14141492Y-17603150D01*
X14141492Y-17603150D02*
X14122444Y-17612674D01*
X14208158Y-17726960D02*
X14189111Y-17736484D01*
X14189111Y-17736484D02*
X14141492Y-17736484D01*
X14141492Y-17736484D02*
X14122444Y-17726960D01*
X14122444Y-17726960D02*
X14112920Y-17707912D01*
X14112920Y-17707912D02*
X14112920Y-17688865D01*
X14112920Y-17688865D02*
X14122444Y-17669817D01*
X14122444Y-17669817D02*
X14141492Y-17660293D01*
X14141492Y-17660293D02*
X14189111Y-17660293D01*
X14189111Y-17660293D02*
X14208158Y-17650770D01*
X14274825Y-17603150D02*
X14351015Y-17603150D01*
X14303396Y-17536484D02*
X14303396Y-17707912D01*
X14303396Y-17707912D02*
X14312920Y-17726960D01*
X14312920Y-17726960D02*
X14331968Y-17736484D01*
X14331968Y-17736484D02*
X14351015Y-17736484D01*
X14493873Y-17726960D02*
X14474825Y-17736484D01*
X14474825Y-17736484D02*
X14436730Y-17736484D01*
X14436730Y-17736484D02*
X14417682Y-17726960D01*
X14417682Y-17726960D02*
X14408158Y-17707912D01*
X14408158Y-17707912D02*
X14408158Y-17631722D01*
X14408158Y-17631722D02*
X14417682Y-17612674D01*
X14417682Y-17612674D02*
X14436730Y-17603150D01*
X14436730Y-17603150D02*
X14474825Y-17603150D01*
X14474825Y-17603150D02*
X14493873Y-17612674D01*
X14493873Y-17612674D02*
X14503396Y-17631722D01*
X14503396Y-17631722D02*
X14503396Y-17650770D01*
X14503396Y-17650770D02*
X14408158Y-17669817D01*
X14674825Y-17736484D02*
X14674825Y-17536484D01*
X14674825Y-17726960D02*
X14655777Y-17736484D01*
X14655777Y-17736484D02*
X14617682Y-17736484D01*
X14617682Y-17736484D02*
X14598634Y-17726960D01*
X14598634Y-17726960D02*
X14589111Y-17717436D01*
X14589111Y-17717436D02*
X14579587Y-17698389D01*
X14579587Y-17698389D02*
X14579587Y-17641246D01*
X14579587Y-17641246D02*
X14589111Y-17622198D01*
X14589111Y-17622198D02*
X14598634Y-17612674D01*
X14598634Y-17612674D02*
X14617682Y-17603150D01*
X14617682Y-17603150D02*
X14655777Y-17603150D01*
X14655777Y-17603150D02*
X14674825Y-17612674D01*
X14751015Y-17812674D02*
X14760539Y-17803150D01*
X14760539Y-17803150D02*
X14779587Y-17774579D01*
X14779587Y-17774579D02*
X14789111Y-17755531D01*
X14789111Y-17755531D02*
X14798634Y-17726960D01*
X14798634Y-17726960D02*
X14808158Y-17679341D01*
X14808158Y-17679341D02*
X14808158Y-17641246D01*
X14808158Y-17641246D02*
X14798634Y-17593627D01*
X14798634Y-17593627D02*
X14789111Y-17565055D01*
X14789111Y-17565055D02*
X14779587Y-17546008D01*
X14779587Y-17546008D02*
X14760539Y-17517436D01*
X14760539Y-17517436D02*
X14751015Y-17507912D01*
X7995000Y-17965000D02*
G75*
G03*
X7795000Y-17965000I-100000J0D01*
G01*
X7795000Y-17965000D02*
G75*
G03*
X7995000Y-17965000I100000J0D01*
G01*
X8236729Y-17856484D02*
X8360539Y-17856484D01*
X8360539Y-17856484D02*
X8293872Y-17932674D01*
X8293872Y-17932674D02*
X8322443Y-17932674D01*
X8322443Y-17932674D02*
X8341491Y-17942198D01*
X8341491Y-17942198D02*
X8351015Y-17951722D01*
X8351015Y-17951722D02*
X8360539Y-17970770D01*
X8360539Y-17970770D02*
X8360539Y-18018389D01*
X8360539Y-18018389D02*
X8351015Y-18037436D01*
X8351015Y-18037436D02*
X8341491Y-18046960D01*
X8341491Y-18046960D02*
X8322443Y-18056484D01*
X8322443Y-18056484D02*
X8265301Y-18056484D01*
X8265301Y-18056484D02*
X8246253Y-18046960D01*
X8246253Y-18046960D02*
X8236729Y-18037436D01*
X8446253Y-18037436D02*
X8455777Y-18046960D01*
X8455777Y-18046960D02*
X8446253Y-18056484D01*
X8446253Y-18056484D02*
X8436729Y-18046960D01*
X8436729Y-18046960D02*
X8446253Y-18037436D01*
X8446253Y-18037436D02*
X8446253Y-18056484D01*
X8636729Y-17856484D02*
X8541491Y-17856484D01*
X8541491Y-17856484D02*
X8531967Y-17951722D01*
X8531967Y-17951722D02*
X8541491Y-17942198D01*
X8541491Y-17942198D02*
X8560539Y-17932674D01*
X8560539Y-17932674D02*
X8608158Y-17932674D01*
X8608158Y-17932674D02*
X8627205Y-17942198D01*
X8627205Y-17942198D02*
X8636729Y-17951722D01*
X8636729Y-17951722D02*
X8646253Y-17970770D01*
X8646253Y-17970770D02*
X8646253Y-18018389D01*
X8646253Y-18018389D02*
X8636729Y-18037436D01*
X8636729Y-18037436D02*
X8627205Y-18046960D01*
X8627205Y-18046960D02*
X8608158Y-18056484D01*
X8608158Y-18056484D02*
X8560539Y-18056484D01*
X8560539Y-18056484D02*
X8541491Y-18046960D01*
X8541491Y-18046960D02*
X8531967Y-18037436D01*
X8770063Y-17856484D02*
X8789110Y-17856484D01*
X8789110Y-17856484D02*
X8808158Y-17866008D01*
X8808158Y-17866008D02*
X8817682Y-17875531D01*
X8817682Y-17875531D02*
X8827205Y-17894579D01*
X8827205Y-17894579D02*
X8836729Y-17932674D01*
X8836729Y-17932674D02*
X8836729Y-17980293D01*
X8836729Y-17980293D02*
X8827205Y-18018389D01*
X8827205Y-18018389D02*
X8817682Y-18037436D01*
X8817682Y-18037436D02*
X8808158Y-18046960D01*
X8808158Y-18046960D02*
X8789110Y-18056484D01*
X8789110Y-18056484D02*
X8770063Y-18056484D01*
X8770063Y-18056484D02*
X8751015Y-18046960D01*
X8751015Y-18046960D02*
X8741491Y-18037436D01*
X8741491Y-18037436D02*
X8731967Y-18018389D01*
X8731967Y-18018389D02*
X8722444Y-17980293D01*
X8722444Y-17980293D02*
X8722444Y-17932674D01*
X8722444Y-17932674D02*
X8731967Y-17894579D01*
X8731967Y-17894579D02*
X8741491Y-17875531D01*
X8741491Y-17875531D02*
X8751015Y-17866008D01*
X8751015Y-17866008D02*
X8770063Y-17856484D01*
X8960539Y-17856484D02*
X8979586Y-17856484D01*
X8979586Y-17856484D02*
X8998634Y-17866008D01*
X8998634Y-17866008D02*
X9008158Y-17875531D01*
X9008158Y-17875531D02*
X9017682Y-17894579D01*
X9017682Y-17894579D02*
X9027205Y-17932674D01*
X9027205Y-17932674D02*
X9027205Y-17980293D01*
X9027205Y-17980293D02*
X9017682Y-18018389D01*
X9017682Y-18018389D02*
X9008158Y-18037436D01*
X9008158Y-18037436D02*
X8998634Y-18046960D01*
X8998634Y-18046960D02*
X8979586Y-18056484D01*
X8979586Y-18056484D02*
X8960539Y-18056484D01*
X8960539Y-18056484D02*
X8941491Y-18046960D01*
X8941491Y-18046960D02*
X8931967Y-18037436D01*
X8931967Y-18037436D02*
X8922444Y-18018389D01*
X8922444Y-18018389D02*
X8912920Y-17980293D01*
X8912920Y-17980293D02*
X8912920Y-17932674D01*
X8912920Y-17932674D02*
X8922444Y-17894579D01*
X8922444Y-17894579D02*
X8931967Y-17875531D01*
X8931967Y-17875531D02*
X8941491Y-17866008D01*
X8941491Y-17866008D02*
X8960539Y-17856484D01*
X9112920Y-18056484D02*
X9112920Y-17923150D01*
X9112920Y-17942198D02*
X9122444Y-17932674D01*
X9122444Y-17932674D02*
X9141491Y-17923150D01*
X9141491Y-17923150D02*
X9170063Y-17923150D01*
X9170063Y-17923150D02*
X9189110Y-17932674D01*
X9189110Y-17932674D02*
X9198634Y-17951722D01*
X9198634Y-17951722D02*
X9198634Y-18056484D01*
X9198634Y-17951722D02*
X9208158Y-17932674D01*
X9208158Y-17932674D02*
X9227205Y-17923150D01*
X9227205Y-17923150D02*
X9255777Y-17923150D01*
X9255777Y-17923150D02*
X9274825Y-17932674D01*
X9274825Y-17932674D02*
X9284348Y-17951722D01*
X9284348Y-17951722D02*
X9284348Y-18056484D01*
X9379586Y-18056484D02*
X9379586Y-17923150D01*
X9379586Y-17942198D02*
X9389110Y-17932674D01*
X9389110Y-17932674D02*
X9408158Y-17923150D01*
X9408158Y-17923150D02*
X9436729Y-17923150D01*
X9436729Y-17923150D02*
X9455777Y-17932674D01*
X9455777Y-17932674D02*
X9465301Y-17951722D01*
X9465301Y-17951722D02*
X9465301Y-18056484D01*
X9465301Y-17951722D02*
X9474825Y-17932674D01*
X9474825Y-17932674D02*
X9493872Y-17923150D01*
X9493872Y-17923150D02*
X9522444Y-17923150D01*
X9522444Y-17923150D02*
X9541491Y-17932674D01*
X9541491Y-17932674D02*
X9551015Y-17951722D01*
X9551015Y-17951722D02*
X9551015Y-18056484D01*
X9941491Y-17846960D02*
X9770063Y-18104103D01*
X10198634Y-17856484D02*
X10217682Y-17856484D01*
X10217682Y-17856484D02*
X10236729Y-17866008D01*
X10236729Y-17866008D02*
X10246253Y-17875531D01*
X10246253Y-17875531D02*
X10255777Y-17894579D01*
X10255777Y-17894579D02*
X10265301Y-17932674D01*
X10265301Y-17932674D02*
X10265301Y-17980293D01*
X10265301Y-17980293D02*
X10255777Y-18018389D01*
X10255777Y-18018389D02*
X10246253Y-18037436D01*
X10246253Y-18037436D02*
X10236729Y-18046960D01*
X10236729Y-18046960D02*
X10217682Y-18056484D01*
X10217682Y-18056484D02*
X10198634Y-18056484D01*
X10198634Y-18056484D02*
X10179587Y-18046960D01*
X10179587Y-18046960D02*
X10170063Y-18037436D01*
X10170063Y-18037436D02*
X10160539Y-18018389D01*
X10160539Y-18018389D02*
X10151015Y-17980293D01*
X10151015Y-17980293D02*
X10151015Y-17932674D01*
X10151015Y-17932674D02*
X10160539Y-17894579D01*
X10160539Y-17894579D02*
X10170063Y-17875531D01*
X10170063Y-17875531D02*
X10179587Y-17866008D01*
X10179587Y-17866008D02*
X10198634Y-17856484D01*
X10351015Y-18037436D02*
X10360539Y-18046960D01*
X10360539Y-18046960D02*
X10351015Y-18056484D01*
X10351015Y-18056484D02*
X10341491Y-18046960D01*
X10341491Y-18046960D02*
X10351015Y-18037436D01*
X10351015Y-18037436D02*
X10351015Y-18056484D01*
X10551015Y-18056484D02*
X10436729Y-18056484D01*
X10493872Y-18056484D02*
X10493872Y-17856484D01*
X10493872Y-17856484D02*
X10474825Y-17885055D01*
X10474825Y-17885055D02*
X10455777Y-17904103D01*
X10455777Y-17904103D02*
X10436729Y-17913627D01*
X10617682Y-17856484D02*
X10741491Y-17856484D01*
X10741491Y-17856484D02*
X10674825Y-17932674D01*
X10674825Y-17932674D02*
X10703396Y-17932674D01*
X10703396Y-17932674D02*
X10722444Y-17942198D01*
X10722444Y-17942198D02*
X10731968Y-17951722D01*
X10731968Y-17951722D02*
X10741491Y-17970770D01*
X10741491Y-17970770D02*
X10741491Y-18018389D01*
X10741491Y-18018389D02*
X10731968Y-18037436D01*
X10731968Y-18037436D02*
X10722444Y-18046960D01*
X10722444Y-18046960D02*
X10703396Y-18056484D01*
X10703396Y-18056484D02*
X10646253Y-18056484D01*
X10646253Y-18056484D02*
X10627206Y-18046960D01*
X10627206Y-18046960D02*
X10617682Y-18037436D01*
X10808158Y-17856484D02*
X10941491Y-17856484D01*
X10941491Y-17856484D02*
X10855777Y-18056484D01*
X11046253Y-17942198D02*
X11027206Y-17932674D01*
X11027206Y-17932674D02*
X11017682Y-17923150D01*
X11017682Y-17923150D02*
X11008158Y-17904103D01*
X11008158Y-17904103D02*
X11008158Y-17894579D01*
X11008158Y-17894579D02*
X11017682Y-17875531D01*
X11017682Y-17875531D02*
X11027206Y-17866008D01*
X11027206Y-17866008D02*
X11046253Y-17856484D01*
X11046253Y-17856484D02*
X11084349Y-17856484D01*
X11084349Y-17856484D02*
X11103396Y-17866008D01*
X11103396Y-17866008D02*
X11112920Y-17875531D01*
X11112920Y-17875531D02*
X11122444Y-17894579D01*
X11122444Y-17894579D02*
X11122444Y-17904103D01*
X11122444Y-17904103D02*
X11112920Y-17923150D01*
X11112920Y-17923150D02*
X11103396Y-17932674D01*
X11103396Y-17932674D02*
X11084349Y-17942198D01*
X11084349Y-17942198D02*
X11046253Y-17942198D01*
X11046253Y-17942198D02*
X11027206Y-17951722D01*
X11027206Y-17951722D02*
X11017682Y-17961246D01*
X11017682Y-17961246D02*
X11008158Y-17980293D01*
X11008158Y-17980293D02*
X11008158Y-18018389D01*
X11008158Y-18018389D02*
X11017682Y-18037436D01*
X11017682Y-18037436D02*
X11027206Y-18046960D01*
X11027206Y-18046960D02*
X11046253Y-18056484D01*
X11046253Y-18056484D02*
X11084349Y-18056484D01*
X11084349Y-18056484D02*
X11103396Y-18046960D01*
X11103396Y-18046960D02*
X11112920Y-18037436D01*
X11112920Y-18037436D02*
X11122444Y-18018389D01*
X11122444Y-18018389D02*
X11122444Y-17980293D01*
X11122444Y-17980293D02*
X11112920Y-17961246D01*
X11112920Y-17961246D02*
X11103396Y-17951722D01*
X11103396Y-17951722D02*
X11084349Y-17942198D01*
X11198634Y-17856484D02*
X11198634Y-17894579D01*
X11274825Y-17856484D02*
X11274825Y-17894579D01*
X11570063Y-18132674D02*
X11560539Y-18123150D01*
X11560539Y-18123150D02*
X11541491Y-18094579D01*
X11541491Y-18094579D02*
X11531968Y-18075531D01*
X11531968Y-18075531D02*
X11522444Y-18046960D01*
X11522444Y-18046960D02*
X11512920Y-17999341D01*
X11512920Y-17999341D02*
X11512920Y-17961246D01*
X11512920Y-17961246D02*
X11522444Y-17913627D01*
X11522444Y-17913627D02*
X11531968Y-17885055D01*
X11531968Y-17885055D02*
X11541491Y-17866008D01*
X11541491Y-17866008D02*
X11560539Y-17837436D01*
X11560539Y-17837436D02*
X11570063Y-17827912D01*
X11751015Y-18056484D02*
X11636729Y-18056484D01*
X11693872Y-18056484D02*
X11693872Y-17856484D01*
X11693872Y-17856484D02*
X11674825Y-17885055D01*
X11674825Y-17885055D02*
X11655777Y-17904103D01*
X11655777Y-17904103D02*
X11636729Y-17913627D01*
X11989110Y-18056484D02*
X11989110Y-17856484D01*
X12074825Y-18056484D02*
X12074825Y-17951722D01*
X12074825Y-17951722D02*
X12065301Y-17932674D01*
X12065301Y-17932674D02*
X12046253Y-17923150D01*
X12046253Y-17923150D02*
X12017682Y-17923150D01*
X12017682Y-17923150D02*
X11998634Y-17932674D01*
X11998634Y-17932674D02*
X11989110Y-17942198D01*
X12198634Y-18056484D02*
X12179587Y-18046960D01*
X12179587Y-18046960D02*
X12170063Y-18037436D01*
X12170063Y-18037436D02*
X12160539Y-18018389D01*
X12160539Y-18018389D02*
X12160539Y-17961246D01*
X12160539Y-17961246D02*
X12170063Y-17942198D01*
X12170063Y-17942198D02*
X12179587Y-17932674D01*
X12179587Y-17932674D02*
X12198634Y-17923150D01*
X12198634Y-17923150D02*
X12227206Y-17923150D01*
X12227206Y-17923150D02*
X12246253Y-17932674D01*
X12246253Y-17932674D02*
X12255777Y-17942198D01*
X12255777Y-17942198D02*
X12265301Y-17961246D01*
X12265301Y-17961246D02*
X12265301Y-18018389D01*
X12265301Y-18018389D02*
X12255777Y-18037436D01*
X12255777Y-18037436D02*
X12246253Y-18046960D01*
X12246253Y-18046960D02*
X12227206Y-18056484D01*
X12227206Y-18056484D02*
X12198634Y-18056484D01*
X12379587Y-18056484D02*
X12360539Y-18046960D01*
X12360539Y-18046960D02*
X12351015Y-18027912D01*
X12351015Y-18027912D02*
X12351015Y-17856484D01*
X12531968Y-18046960D02*
X12512920Y-18056484D01*
X12512920Y-18056484D02*
X12474825Y-18056484D01*
X12474825Y-18056484D02*
X12455777Y-18046960D01*
X12455777Y-18046960D02*
X12446253Y-18027912D01*
X12446253Y-18027912D02*
X12446253Y-17951722D01*
X12446253Y-17951722D02*
X12455777Y-17932674D01*
X12455777Y-17932674D02*
X12474825Y-17923150D01*
X12474825Y-17923150D02*
X12512920Y-17923150D01*
X12512920Y-17923150D02*
X12531968Y-17932674D01*
X12531968Y-17932674D02*
X12541491Y-17951722D01*
X12541491Y-17951722D02*
X12541491Y-17970770D01*
X12541491Y-17970770D02*
X12446253Y-17989817D01*
X12608158Y-18132674D02*
X12617682Y-18123150D01*
X12617682Y-18123150D02*
X12636730Y-18094579D01*
X12636730Y-18094579D02*
X12646253Y-18075531D01*
X12646253Y-18075531D02*
X12655777Y-18046960D01*
X12655777Y-18046960D02*
X12665301Y-17999341D01*
X12665301Y-17999341D02*
X12665301Y-17961246D01*
X12665301Y-17961246D02*
X12655777Y-17913627D01*
X12655777Y-17913627D02*
X12646253Y-17885055D01*
X12646253Y-17885055D02*
X12636730Y-17866008D01*
X12636730Y-17866008D02*
X12617682Y-17837436D01*
X12617682Y-17837436D02*
X12608158Y-17827912D01*
X12970063Y-18132674D02*
X12960539Y-18123150D01*
X12960539Y-18123150D02*
X12941491Y-18094579D01*
X12941491Y-18094579D02*
X12931968Y-18075531D01*
X12931968Y-18075531D02*
X12922444Y-18046960D01*
X12922444Y-18046960D02*
X12912920Y-17999341D01*
X12912920Y-17999341D02*
X12912920Y-17961246D01*
X12912920Y-17961246D02*
X12922444Y-17913627D01*
X12922444Y-17913627D02*
X12931968Y-17885055D01*
X12931968Y-17885055D02*
X12941491Y-17866008D01*
X12941491Y-17866008D02*
X12960539Y-17837436D01*
X12960539Y-17837436D02*
X12970063Y-17827912D01*
X13046253Y-17923150D02*
X13046253Y-18056484D01*
X13046253Y-17942198D02*
X13055777Y-17932674D01*
X13055777Y-17932674D02*
X13074825Y-17923150D01*
X13074825Y-17923150D02*
X13103396Y-17923150D01*
X13103396Y-17923150D02*
X13122444Y-17932674D01*
X13122444Y-17932674D02*
X13131968Y-17951722D01*
X13131968Y-17951722D02*
X13131968Y-18056484D01*
X13255777Y-18056484D02*
X13236730Y-18046960D01*
X13236730Y-18046960D02*
X13227206Y-18037436D01*
X13227206Y-18037436D02*
X13217682Y-18018389D01*
X13217682Y-18018389D02*
X13217682Y-17961246D01*
X13217682Y-17961246D02*
X13227206Y-17942198D01*
X13227206Y-17942198D02*
X13236730Y-17932674D01*
X13236730Y-17932674D02*
X13255777Y-17923150D01*
X13255777Y-17923150D02*
X13284349Y-17923150D01*
X13284349Y-17923150D02*
X13303396Y-17932674D01*
X13303396Y-17932674D02*
X13312920Y-17942198D01*
X13312920Y-17942198D02*
X13322444Y-17961246D01*
X13322444Y-17961246D02*
X13322444Y-18018389D01*
X13322444Y-18018389D02*
X13312920Y-18037436D01*
X13312920Y-18037436D02*
X13303396Y-18046960D01*
X13303396Y-18046960D02*
X13284349Y-18056484D01*
X13284349Y-18056484D02*
X13255777Y-18056484D01*
X13379587Y-17923150D02*
X13455777Y-17923150D01*
X13408158Y-17856484D02*
X13408158Y-18027912D01*
X13408158Y-18027912D02*
X13417682Y-18046960D01*
X13417682Y-18046960D02*
X13436730Y-18056484D01*
X13436730Y-18056484D02*
X13455777Y-18056484D01*
X13674825Y-17923150D02*
X13674825Y-18123150D01*
X13674825Y-17932674D02*
X13693872Y-17923150D01*
X13693872Y-17923150D02*
X13731968Y-17923150D01*
X13731968Y-17923150D02*
X13751015Y-17932674D01*
X13751015Y-17932674D02*
X13760539Y-17942198D01*
X13760539Y-17942198D02*
X13770063Y-17961246D01*
X13770063Y-17961246D02*
X13770063Y-18018389D01*
X13770063Y-18018389D02*
X13760539Y-18037436D01*
X13760539Y-18037436D02*
X13751015Y-18046960D01*
X13751015Y-18046960D02*
X13731968Y-18056484D01*
X13731968Y-18056484D02*
X13693872Y-18056484D01*
X13693872Y-18056484D02*
X13674825Y-18046960D01*
X13884349Y-18056484D02*
X13865301Y-18046960D01*
X13865301Y-18046960D02*
X13855777Y-18027912D01*
X13855777Y-18027912D02*
X13855777Y-17856484D01*
X14046253Y-18056484D02*
X14046253Y-17951722D01*
X14046253Y-17951722D02*
X14036730Y-17932674D01*
X14036730Y-17932674D02*
X14017682Y-17923150D01*
X14017682Y-17923150D02*
X13979587Y-17923150D01*
X13979587Y-17923150D02*
X13960539Y-17932674D01*
X14046253Y-18046960D02*
X14027206Y-18056484D01*
X14027206Y-18056484D02*
X13979587Y-18056484D01*
X13979587Y-18056484D02*
X13960539Y-18046960D01*
X13960539Y-18046960D02*
X13951015Y-18027912D01*
X13951015Y-18027912D02*
X13951015Y-18008865D01*
X13951015Y-18008865D02*
X13960539Y-17989817D01*
X13960539Y-17989817D02*
X13979587Y-17980293D01*
X13979587Y-17980293D02*
X14027206Y-17980293D01*
X14027206Y-17980293D02*
X14046253Y-17970770D01*
X14112920Y-17923150D02*
X14189111Y-17923150D01*
X14141492Y-17856484D02*
X14141492Y-18027912D01*
X14141492Y-18027912D02*
X14151015Y-18046960D01*
X14151015Y-18046960D02*
X14170063Y-18056484D01*
X14170063Y-18056484D02*
X14189111Y-18056484D01*
X14331968Y-18046960D02*
X14312920Y-18056484D01*
X14312920Y-18056484D02*
X14274825Y-18056484D01*
X14274825Y-18056484D02*
X14255777Y-18046960D01*
X14255777Y-18046960D02*
X14246253Y-18027912D01*
X14246253Y-18027912D02*
X14246253Y-17951722D01*
X14246253Y-17951722D02*
X14255777Y-17932674D01*
X14255777Y-17932674D02*
X14274825Y-17923150D01*
X14274825Y-17923150D02*
X14312920Y-17923150D01*
X14312920Y-17923150D02*
X14331968Y-17932674D01*
X14331968Y-17932674D02*
X14341492Y-17951722D01*
X14341492Y-17951722D02*
X14341492Y-17970770D01*
X14341492Y-17970770D02*
X14246253Y-17989817D01*
X14512920Y-18056484D02*
X14512920Y-17856484D01*
X14512920Y-18046960D02*
X14493873Y-18056484D01*
X14493873Y-18056484D02*
X14455777Y-18056484D01*
X14455777Y-18056484D02*
X14436730Y-18046960D01*
X14436730Y-18046960D02*
X14427206Y-18037436D01*
X14427206Y-18037436D02*
X14417682Y-18018389D01*
X14417682Y-18018389D02*
X14417682Y-17961246D01*
X14417682Y-17961246D02*
X14427206Y-17942198D01*
X14427206Y-17942198D02*
X14436730Y-17932674D01*
X14436730Y-17932674D02*
X14455777Y-17923150D01*
X14455777Y-17923150D02*
X14493873Y-17923150D01*
X14493873Y-17923150D02*
X14512920Y-17932674D01*
X14589111Y-18132674D02*
X14598634Y-18123150D01*
X14598634Y-18123150D02*
X14617682Y-18094579D01*
X14617682Y-18094579D02*
X14627206Y-18075531D01*
X14627206Y-18075531D02*
X14636730Y-18046960D01*
X14636730Y-18046960D02*
X14646253Y-17999341D01*
X14646253Y-17999341D02*
X14646253Y-17961246D01*
X14646253Y-17961246D02*
X14636730Y-17913627D01*
X14636730Y-17913627D02*
X14627206Y-17885055D01*
X14627206Y-17885055D02*
X14617682Y-17866008D01*
X14617682Y-17866008D02*
X14598634Y-17837436D01*
X14598634Y-17837436D02*
X14589111Y-17827912D01*
M02*
