M48
; DRILL file {KiCad 7.0.10} date Wednesday, April 22, 2026 at 04:00:01 PM
; FORMAT={-:-/ absolute / metric / decimal}
; #@! TF.CreationDate,2026-04-22T16:00:01+02:00
; #@! TF.GenerationSoftware,Kicad,Pcbnew,7.0.10
; #@! TF.FileFunction,Plated,1,2,PTH
FMAT,2
METRIC
; #@! TA.AperFunction,Plated,PTH,ViaDrill
T1C0.400
; #@! TA.AperFunction,Plated,PTH,ComponentDrill
T2C0.750
; #@! TA.AperFunction,Plated,PTH,ComponentDrill
T3C0.800
; #@! TA.AperFunction,Plated,PTH,ComponentDrill
T4C0.900
; #@! TA.AperFunction,Plated,PTH,ComponentDrill
T5C0.920
; #@! TA.AperFunction,Plated,PTH,ComponentDrill
T6C1.000
; #@! TA.AperFunction,Plated,PTH,ComponentDrill
T7C1.100
; #@! TA.AperFunction,Plated,PTH,ComponentDrill
T8C2.330
%
G90
G05
T1
X82.4Y-109.8
X100.0Y-120.5
X107.5Y-120.25
X122.8Y-133.1
X128.25Y-109.5
X129.25Y-113.25
X133.25Y-136.25
X133.5Y-121.0
X141.5Y-129.8
T2
X128.73Y-90.0
X130.0Y-90.0
X131.27Y-90.0
T3
X81.38Y-140.61
X81.38Y-158.39
X83.92Y-140.61
X83.92Y-158.39
X84.5Y-105.0
X84.5Y-115.5
X86.46Y-140.61
X86.46Y-158.39
X87.0Y-105.0
X87.0Y-115.5
X87.955Y-110.25
X89.0Y-140.61
X89.0Y-158.39
X90.455Y-110.25
X91.54Y-140.61
X91.54Y-158.39
X93.75Y-102.5
X93.75Y-105.5
X93.795Y-95.0
X94.08Y-140.61
X94.08Y-158.39
X94.92Y-110.25
X95.5Y-114.59
X95.5Y-124.75
X96.25Y-102.5
X96.25Y-105.5
X96.295Y-95.0
X96.62Y-140.61
X96.62Y-158.39
X99.0Y-114.59
X99.0Y-124.75
X99.16Y-140.61
X99.16Y-158.39
X103.0Y-135.67
X103.0Y-145.83
X103.0Y-151.67
X103.0Y-161.83
X105.08Y-110.25
X106.92Y-133.75
X107.35Y-137.455
X107.35Y-145.075
X109.89Y-137.455
X109.89Y-145.075
X110.59Y-101.25
X110.59Y-104.75
X111.25Y-129.0
X111.675Y-109.125
X111.675Y-111.665
X111.675Y-114.205
X111.675Y-116.745
X111.675Y-119.285
X111.675Y-121.825
X111.675Y-124.365
X112.43Y-137.455
X112.43Y-145.075
X113.75Y-129.0
X114.97Y-137.455
X114.97Y-145.075
X117.08Y-133.75
X117.25Y-129.0
X117.51Y-137.455
X117.51Y-145.075
X119.295Y-109.125
X119.295Y-111.665
X119.295Y-114.205
X119.295Y-116.745
X119.295Y-119.285
X119.295Y-121.825
X119.295Y-124.365
X119.75Y-129.0
X120.05Y-137.455
X120.05Y-145.075
X120.75Y-101.25
X120.75Y-104.75
X122.59Y-137.455
X122.59Y-145.075
X125.13Y-137.455
X125.13Y-145.075
X127.67Y-137.455
X127.67Y-145.075
X130.25Y-122.67
X130.25Y-132.83
X133.5Y-138.8
X133.5Y-143.7
X136.09Y-117.375
X136.09Y-127.125
X136.09Y-132.0
X137.0Y-102.92
X137.0Y-113.08
X139.5Y-135.92
X139.5Y-146.08
X141.0Y-149.42
X141.0Y-159.58
X141.25Y-102.92
X141.25Y-113.08
X142.545Y-96.25
X143.13Y-122.174
X145.045Y-96.25
X145.25Y-104.191
X145.25Y-111.811
X145.63Y-122.174
X146.25Y-117.375
X146.25Y-127.125
X146.25Y-132.0
T4
X102.975Y-101.0
X102.975Y-106.0
X102.975Y-125.25
X102.975Y-130.25
X103.7Y-115.625
X104.975Y-101.0
X104.975Y-106.0
X104.975Y-125.25
X104.975Y-130.25
X106.24Y-115.625
X106.975Y-101.0
X106.975Y-106.0
X106.975Y-125.25
X106.975Y-130.25
X123.7Y-103.25
X123.7Y-115.625
X123.7Y-128.0
X126.24Y-103.25
X126.24Y-115.625
X126.24Y-128.0
T5
X88.578Y-125.75
X88.578Y-128.25
X90.578Y-125.75
X90.578Y-128.25
T6
X94.24Y-88.29
X94.25Y-83.21
X106.51Y-149.88
X106.51Y-165.12
X109.05Y-149.88
X109.05Y-165.12
X111.59Y-149.88
X111.59Y-165.12
X114.13Y-149.88
X114.13Y-165.12
X116.67Y-149.88
X116.67Y-165.12
X119.21Y-149.88
X119.21Y-165.12
X121.75Y-149.88
X121.75Y-165.12
X124.29Y-149.88
X124.29Y-165.12
X126.83Y-149.88
X126.83Y-165.12
X129.37Y-149.88
X129.37Y-165.12
X130.975Y-83.5
X131.91Y-149.88
X131.91Y-165.12
X133.515Y-83.5
X134.45Y-149.88
X134.45Y-165.12
T7
X95.0Y-127.8
X95.0Y-135.42
X99.0Y-127.8
X99.0Y-135.42
X102.229Y-86.647
X102.229Y-89.186
X102.229Y-91.727
T8
X85.867Y-120.98
X85.867Y-133.02
T6
X83.25Y-93.75G85X83.25Y-95.75
G05
X85.25Y-99.45G85X87.25Y-99.45
G05
X89.25Y-93.75G85X89.25Y-95.75
G05
M30
